<?xml version="1.0" standalone="no"?>
<!DOCTYPE svg PUBLIC "-//W3C//DTD SVG 20010904//EN"
 "http://www.w3.org/TR/2001/REC-SVG-20010904/DTD/svg10.dtd">
<svg version="1.0" xmlns="http://www.w3.org/2000/svg"
 width="512.000000pt" height="512.000000pt" viewBox="0 0 512.000000 512.000000"
 preserveAspectRatio="xMidYMid meet">

<g transform="translate(0.000000,512.000000) scale(0.100000,-0.100000)"
fill="#000000" stroke="none">
<path d="M2490 4604 c-440 -52 -647 -102 -867 -210 -187 -92 -375 -255 -471
-410 -82 -131 -265 -459 -312 -559 -126 -266 -166 -488 -124 -705 17 -92 69
-252 104 -320 l23 -44 -24 -16 c-184 -118 -252 -359 -159 -558 57 -121 199
-226 324 -239 52 -5 54 -7 76 -52 120 -249 344 -500 585 -657 564 -366 1317
-359 1880 17 196 131 394 345 508 550 l48 86 56 6 c175 18 336 180 361 365 23
170 -65 360 -202 433 -25 13 -46 29 -46 34 0 6 16 49 36 95 77 184 88 236 88
430 0 193 -13 283 -69 506 -91 357 -203 556 -442 784 -235 225 -521 375 -838
441 -77 16 -147 21 -300 24 -110 2 -216 1 -235 -1z m460 -121 c401 -65 772
-292 1026 -628 196 -259 347 -906 279 -1194 -22 -90 -27 -93 -42 -20 -99 490
-409 932 -828 1181 -483 287 -1084 303 -1597 41 -360 -185 -647 -506 -801
-898 -32 -82 -85 -280 -102 -380 -7 -38 -8 -39 -17 -15 -34 86 -58 218 -58
317 0 215 61 395 241 704 39 68 96 169 126 224 132 241 276 377 515 489 221
104 534 173 903 199 83 6 254 -4 355 -20z m-88 -572 c365 -79 703 -296 933
-602 384 -510 460 -1213 190 -1774 -177 -369 -496 -649 -891 -781 -170 -57
-276 -75 -484 -81 -218 -6 -352 12 -541 73 -890 287 -1335 1316 -962 2224 211
513 693 885 1245 959 118 16 397 6 510 -18z m-1982 -1786 c14 -137 39 -262 78
-382 34 -107 32 -111 -55 -68 -204 102 -245 377 -80 536 23 23 42 37 44 32 1
-4 7 -57 13 -118z m3488 -60 c24 -44 27 -61 27 -145 0 -84 -3 -101 -27 -145
-37 -70 -104 -131 -174 -160 -32 -13 -60 -22 -62 -21 -1 2 11 44 28 94 40 120
66 249 81 395 l12 118 44 -43 c25 -24 57 -65 71 -93z"/>
<path d="M1811 3460 c-132 -19 -264 -71 -269 -108 -4 -29 9 -28 87 3 135 55
325 71 478 39 78 -16 102 -11 90 19 -13 35 -260 64 -386 47z"/>
<path d="M2958 3447 c-74 -14 -94 -27 -84 -52 5 -14 14 -16 44 -10 143 27 290
32 402 14 36 -5 104 -23 151 -40 102 -34 109 -35 109 -9 0 24 -50 51 -151 81
-92 27 -363 36 -471 16z"/>
<path d="M1510 3117 c-67 -50 -77 -64 -58 -84 15 -14 22 -11 78 32 38 30 60
53 58 63 -5 27 -30 24 -78 -11z"/>
<path d="M2137 3123 c-15 -14 -4 -32 62 -99 38 -39 80 -93 94 -120 28 -55 53
-132 45 -139 -3 -3 -63 2 -134 10 -239 28 -523 15 -761 -35 -53 -11 -98 -20
-101 -20 -10 0 10 87 34 147 14 35 23 71 20 78 -15 39 -50 -2 -83 -96 -133
-382 167 -775 570 -746 297 21 521 263 521 562 0 171 -77 335 -203 431 -46 35
-53 38 -64 27z m95 -405 c53 -6 102 -14 109 -18 8 -5 11 -30 10 -69 -5 -170
-111 -335 -269 -419 -254 -136 -572 -31 -697 229 -36 75 -65 204 -49 218 15
14 340 71 406 71 4 0 4 -15 1 -34 -4 -28 -1 -39 20 -60 32 -32 65 -33 102 -4
24 19 27 26 22 66 l-5 45 127 -7 c69 -3 170 -11 223 -18z"/>
<path d="M3570 3101 c0 -11 18 -33 40 -51 50 -40 132 -162 150 -223 7 -26 10
-50 7 -53 -3 -3 -54 -1 -113 5 -257 26 -562 4 -811 -58 -73 -18 -73 -18 -73 2
0 12 7 47 16 79 12 42 14 62 6 70 -58 58 -101 -211 -58 -356 72 -242 267 -399
511 -413 255 -15 476 135 567 383 17 47 22 82 22 174 1 133 -17 198 -85 306
-68 108 -179 191 -179 135z m20 -371 c69 -5 142 -12 163 -16 37 -6 37 -6 37
-52 0 -26 -7 -75 -15 -110 -93 -395 -575 -534 -860 -247 -85 85 -144 213 -145
312 0 36 3 37 145 67 66 14 282 46 308 46 8 0 11 -13 9 -39 -3 -32 0 -42 24
-60 57 -45 131 -1 120 71 l-6 38 47 0 c27 0 104 -5 173 -10z"/>
<path d="M2899 3081 c-50 -41 -95 -109 -82 -122 18 -18 35 -7 97 58 38 40 56
68 53 78 -9 22 -28 18 -68 -14z"/>
<path d="M2614 2235 c-4 -9 13 -36 40 -67 26 -29 60 -80 76 -112 45 -90 39
-141 -22 -172 -65 -34 -156 5 -270 114 -55 52 -60 55 -76 39 -16 -16 -12 -22
59 -90 123 -119 232 -155 319 -106 107 60 93 188 -38 350 -46 58 -77 73 -88
44z"/>
<path d="M2473 1400 c-178 -19 -360 -61 -370 -87 -12 -32 14 -36 99 -14 268
68 602 68 832 0 70 -21 95 -17 83 15 -7 17 -103 49 -216 70 -101 19 -320 27
-428 16z"/>
</g>
</svg>
